<?xml version="1.0" encoding="UTF-8"?>
<svg width="1200pt" height="1200pt" version="1.1" viewBox="0 0 1200 1200" xmlns="http://www.w3.org/2000/svg">
 <path d="m507.37 634.13h283.26c6 0 11.766-2.3906 15.984-6.6562 4.2656-4.2188 6.6562-9.9844 6.6562-15.984v-22.641c0-6.0469-2.3906-11.766-6.6562-16.031-4.2188-4.2656-9.9844-6.6094-15.984-6.6094h-283.45l118.08-118.5h-0.046874c4.2656-4.2656 6.6094-10.031 6.6094-16.031s-2.3906-11.766-6.6562-15.984l-16.031-15.984c-8.8594-8.8125-23.203-8.8125-32.016 0.046875l-183.79 184.4c-8.8125 8.8594-8.8125 23.203 0.046875 32.016l184.13 184.08h-0.046875c8.8594 8.8594 23.203 8.8594 32.016 0l15.984-15.984h0.046875c4.2656-4.2656 6.6094-10.031 6.6094-16.031s-2.3438-11.766-6.6094-15.984z"/>
</svg>
