<?xml version="1.0" encoding="UTF-8"?>
<svg width="1200pt" height="1200pt" version="1.1" viewBox="0 0 1200 1200" xmlns="http://www.w3.org/2000/svg">
 <path d="m936.72 550.8-306.96-450.84c-6.6719-10.055-17.934-16.102-30-16.102-12.066 0-23.332 6.0469-30 16.102l-306.48 450.84c-0.74219 1.1211-1.4258 2.2852-2.043 3.4805-41.148 78.145-54.016 168.11-36.43 254.66 17.59 86.547 64.555 164.36 132.94 220.25 68.387 55.887 153.99 86.414 242.31 86.414 88.32 0 173.92-30.527 242.31-86.414 68.387-55.891 115.36-133.7 132.94-220.25 17.59-86.551 4.7188-176.52-36.43-254.66-0.65625-1.1992-1.375-2.3633-2.1602-3.4805zm-116.88 401.88c-52.488 52.465-122.01 84.43-196.01 90.109-73.996 5.6797-147.58-15.293-207.46-59.133-59.883-43.836-102.11-107.65-119.05-179.91-16.941-72.254-7.4766-148.18 26.68-214.07l276-405.48 276 405.48c30.629 58.574 41.703 125.41 31.598 190.73-10.105 65.32-40.859 125.69-87.758 172.27z" fill="#fff"/>
 <path d="m522.24 868.68c-33.324-18.836-57.781-50.172-67.957-87.078-10.18-36.906-5.2422-76.344 13.719-109.6 6.4297-11.191 6.4023-24.961-0.070312-36.125-6.4766-11.164-18.414-18.023-31.32-18-12.906 0.027344-24.82 6.9336-31.25 18.125-18.746 33.02-28.461 70.395-28.16 108.36 0.30469 37.969 10.609 75.188 29.879 107.91 19.27 32.715 46.82 59.777 79.883 78.449 11.188 6.4336 24.957 6.4062 36.121-0.070312 11.164-6.4766 18.027-18.414 18-31.32-0.023437-12.906-6.9336-24.816-18.121-31.25z" fill="#fff"/>
</svg>
