<?xml version="1.0" encoding="UTF-8"?>
<svg viewBox="0 0 1200 1200" xmlns="http://www.w3.org/2000/svg">
 <rect x="-120" y="-120" width="1440" height="1440" fill="#fff"/>
 <path d="m456.5 254.52-3.4062 23.309-16.5-15.48 15.086 16.699-23.633 2.9336 23.336 3.4062-15.48 16.523 16.676-15.082 2.957 23.633 3.4062-23.336 16.5 15.48-15.086-16.699 23.633-2.9336-23.336-3.4062 15.48-16.523-16.676 15.086zm239.9 28.281-3.4062 23.309-16.5-15.48 15.086 16.699-23.633 2.9336 23.336 3.4062-15.48 16.523 16.676-15.086 2.957 23.633 3.4062-23.336 16.5 15.48-15.086-16.699 23.633-2.9336-23.336-3.4062 15.48-16.523-16.676 15.082-2.957-23.609zm-91.422 63.543-6.8828 7.4805-84.812 91.969-2.6836 2.9062 0.22266 3.9258 17.742 323.15-95.25-188.09-1.2188-2.4102-2.5859-0.79688-81.707-25.473-6.6602-2.0859-1.5156 6.7852-18.785 83.52-0.59766 2.6328 1.4648 2.2617 105.59 161.72c-16.551 7.2617-31.152 15.547-40.184 20.801-10.555 6.1367-17.082 11.258-20.426 17.445-1.6719 3.0938-2.3711 6.7734-1.5156 10.137 0.85547 3.3672 2.957 6.0234 5.4414 8.0508 4.9688 4.0547 11.734 6.4609 19.879 8.6211 16.289 4.3281 38.285 6.9531 59.145 9.4922 20.855 2.5391 40.73 5.1445 50.793 8.5 3.5898 1.1953 5.793 2.3047 6.8594 3.0312-0.47656 0.64062-1.1367 1.4805-2.1367 2.5586-2.3516 2.5312-6.2539 5.6484-6.6602 11.703-0.20312 3.0273 1.0586 6.3711 3.207 8.8203 2.1484 2.4531 5.043 4.3711 8.9219 6.3125 27.734 13.867 78.242 17.59 128.75 15.707 50.508-1.8828 100.02-9.4688 125.62-22.266 33.605-16.801 55.078-38.996 57.852-60.438 1.3867-10.719-3.0234-21.336-12.723-28.031-8.2344-5.6836-15.41-10.59-28.926-17.023l107.82-165.15 1.4648-2.2617-0.59766-2.6328-18.785-83.52-1.5156-6.7852-6.6602 2.0859-81.707 25.473-2.5859 0.79688-1.2188 2.4102-96.094 189.75 17.816-324.82 0.22266-3.9258-2.6836-2.9062-84.789-91.969-6.9102-7.4805zm273.48 7.6055-3.4062 23.309-16.5-15.48 15.082 16.699-23.633 2.9336 23.336 3.4062-15.48 16.523 16.676-15.082 2.957 23.633 3.4062-23.336 16.5 15.48-15.082-16.699 23.633-2.9336-23.336-3.4062 15.48-16.523-16.676 15.082-2.957-23.609zm-273.48 20.078 72.215 78.254-73.059 46.941-71.121-47.191zm-309.29 46.023-3.4062 23.309-16.5-15.48 15.086 16.699-23.633 2.9336 23.336 3.4062-15.48 16.523 16.676-15.082 2.957 23.633 3.4062-23.336 16.5 15.48-15.086-16.699 23.633-2.9336-23.336-3.4062 15.48-16.523-16.676 15.086zm474.86 16.602-3.4062 23.309-16.5-15.48 15.086 16.699-23.633 2.9336 23.336 3.4062-15.48 16.523 16.676-15.086 2.957 23.633 3.4062-23.332 16.5 15.48-15.086-16.699 23.633-2.9336-23.336-3.4062 15.48-16.523-16.676 15.082-2.957-23.609zm-336.47 5.8633-3.4062 23.309-16.5-15.48 15.086 16.699-23.633 2.9336 23.336 3.4062-15.48 16.523 16.676-15.082 2.957 23.633 3.4062-23.332 16.5 15.48-15.086-16.699 23.633-2.9336-23.336-3.4062 15.48-16.523-16.676 15.082zm95.973 18.812 70.25 46.57v329.98l-51.391-33.074-18.859-343.48zm149.85 0.39844-18.859 343.08-51.363 33.074v-331.08l70.227-45.078zm268.18 78.875-3.4062 23.309-16.5-15.48 15.082 16.699-23.633 2.9297 23.336 3.4062-15.48 16.527 16.676-15.086 2.957 23.633 3.4062-23.336 16.5 15.48-15.082-16.699 23.633-2.9336-23.336-3.4023 15.48-16.527-16.676 15.086-2.957-23.609zm-597.47 32.727 69.582 21.668-27.234 52.805-58.297-3.6289 15.953-70.848zm509.5 0 16.004 71.098-59.344 2.8086-26.02-52.309 69.355-21.594zm-74.277 26.094 25.695 51.641-112.92 195.55-19.059-37.051 0.027344-0.27344 106.26-209.86zm-360.82 0.24219 105.29 207.97 0.17578 2.9805v0.21875l-18.363 35.758-113.29-196.21 26.191-50.719zm-172.14 5.2695-3.4062 23.309-16.5-15.48 15.086 16.699-23.633 2.9336 23.336 3.4062-15.48 16.523 16.676-15.086 2.957 23.633 3.4062-23.336 16.5 15.48-15.082-16.699 23.633-2.9336-23.336-3.4023 15.48-16.527-16.676 15.086-2.957-23.605zm83.223 45.773 57.555 3.5547 112.89 195.54-41.773-2.0391-128.67-197.06zm538.38 0.21875-128.52 196.84-41.773 2.0391 113.27-196.19z" fill="#27599f"/>
</svg>
