<svg xmlns="http://www.w3.org/2000/svg" viewBox="355.95 292.99 488.09 614.01">  <path d="m788.93 513.42h-7.8828v-39.379c0-64.68-34.508-124.46-90.512-156.78-56.031-32.355-125.05-32.355-181.08 0-56 32.324-90.512 92.105-90.512 156.78v39.379h-7.8828c-30.375 0.14844-54.938 24.738-55.113 55.086v283.39c0.17578 30.375 24.738 54.938 55.113 55.113h377.86c30.375-0.17578 54.938-24.738 55.113-55.113v-283.39c-0.17578-30.348-24.738-54.938-55.113-55.086zm-322.74-39.379c0-47.793 25.504-91.984 66.895-115.89 41.418-23.883 92.426-23.883 133.84 0 41.387 23.91 66.895 68.102 66.895 115.89v39.379h-267.63zm330.62 377.86c0 2.0977-0.82812 4.1016-2.3008 5.5781-1.4766 1.4766-3.4844 2.3008-5.5781 2.3008h-377.86c-4.3398 0-7.8828-3.5117-7.8828-7.8828v-283.39c0-4.3398 3.543-7.8516 7.8828-7.8516h377.86c2.0977 0 4.1016 0.82812 5.5781 2.3008 1.4766 1.4766 2.3008 3.4844 2.3008 5.5508zm-157.43-188.93h-0.03125c0.17578 12.426-5.6992 24.176-15.734 31.5v47.23c0 13.047-10.566 23.617-23.617 23.617-13.047 0-23.617-10.566-23.617-23.617v-47.23c-10.035-7.3203-15.91-19.07-15.734-31.5 0-21.727 17.625-39.352 39.352-39.352s39.352 17.625 39.352 39.352z" fill="#27599f"></path> </svg>