<?xml version="1.0" encoding="UTF-8"?>
<svg width="1200pt" height="1200pt" version="1.1" viewBox="0 0 1200 1200" xmlns="http://www.w3.org/2000/svg">
 <path d="m990 912.61c260.29-322.45 29.766-811.13-390-812.02-419.76 0.89062-650.34 489.56-390 812.02 192.94 248.9 587.11 249.19 780 0zm-838.69-287.02h95.953c32.859-0.5625 32.859-49.453 0-50.016h-95.953c4.9688-90 36.375-172.87 86.766-241.22 32.906 19.031 70.875 35.438 112.08 48.469-36.891 134.68-36.891 300.84 0 435.52-41.203 13.078-79.172 29.484-112.08 48.469-50.391-68.344-81.797-151.22-86.766-241.22zm897.42-50.016h-171.84c-1.8281-67.078-11.062-132.66-27-192.74 41.203-13.078 79.172-29.484 112.08-48.469 50.391 68.344 81.797 151.22 86.766 241.22zm-473.72 206.53c-61.922 1.6406-121.08 9.3281-176.72 22.922-14.812-55.875-23.344-116.86-25.172-179.44h201.89zm-201.89-206.53c1.8281-62.578 10.359-123.61 25.172-179.44 55.641 13.594 114.84 21.281 176.72 22.922v156.52zm251.9-156.52c61.922-1.6406 121.08-9.3281 176.72-22.922 14.812 55.875 23.344 116.86 25.172 179.44h-201.89zm0-50.484-0.046876-214.92c64.781 14.766 124.6 85.781 162.56 194.44-50.906 12.094-106.27 18.938-162.56 20.484zm-50.016-214.92v214.92c-56.297-1.5469-111.61-8.3906-162.56-20.484 38.016-108.66 97.828-179.68 162.56-194.44zm0 678.94v214.92c-64.781-14.766-124.6-85.781-162.56-194.44 50.906-12.094 106.27-18.938 162.56-20.484zm50.016 214.92v-214.92c56.297 1.5469 111.61 8.3906 162.56 20.484-38.016 108.66-97.828 179.68-162.56 194.44zm202.08-236.34c-62.859-17.812-130.78-27.188-202.08-29.062v-156.52h201.79c-1.0312 35.812-3.75 71.625-9.2344 106.64-2.1094 13.641 7.2188 26.438 20.812 28.547 13.875 2.1562 26.484-7.1719 28.594-20.812 5.8594-37.547 8.7656-75.938 9.8438-114.38h171.94c-4.9688 90-36.375 172.87-86.766 241.22-38.953-22.5-84.797-41.719-134.86-55.641zm102.61-515.81c-27.75 15.281-59.531 28.594-93.844 39.516-22.547-65.625-52.359-119.2-87.188-158.53 69.844 24.562 131.72 65.766 181.03 119.02zm-478.31-119.02c-34.828 39.328-64.641 92.859-87.188 158.53-34.312-10.922-66.094-24.234-93.844-39.516 49.312-53.25 111.19-94.453 181.03-119.02zm-181.03 729.42c27.75-15.281 59.531-28.594 93.844-39.516 22.547 65.625 52.359 119.2 87.188 158.53-69.844-24.562-131.72-65.766-181.03-119.02zm478.31 119.02c34.828-39.328 64.641-92.859 87.188-158.53 34.312 10.922 66.094 24.234 93.844 39.516-49.312 53.25-111.19 94.453-181.03 119.02z" fill="#27599f"/>
</svg>
