<?xml version="1.0" encoding="UTF-8"?>
<svg xmlns="http://www.w3.org/2000/svg" viewBox="365.73 365.73 468.54 468.54">
 <path d="m463.97 834.27h201.7c22.219 0 43.074-8.6133 58.793-24.336l85.473-85.473c15.719-15.719 24.336-36.578 24.336-58.793v-201.7c0-54.184-44.059-98.242-98.242-98.242h-272.06c-54.184 0-98.242 44.059-98.242 98.242v272.06c0 54.184 44.059 98.242 98.242 98.242zm-52.898-370.3c0-29.172 23.73-52.898 52.898-52.898h272.06c29.172 0 52.898 23.73 52.898 52.898v201.7c0 10.125-3.9297 19.574-11.035 26.754l-85.473 85.473c-7.1055 7.1055-16.625 11.035-26.754 11.035h-201.7c-29.172 0-52.898-23.73-52.898-52.898v-272.06z" fill="#27599f"></path>
 <path d="m516.88 622.67h60.457v60.457c0 12.469 10.203 22.672 22.672 22.672s22.672-10.203 22.672-22.672v-60.457h60.457c12.469 0 22.672-10.203 22.672-22.672s-10.203-22.672-22.672-22.672h-60.457v-60.457c0-12.469-10.203-22.672-22.672-22.672s-22.672 10.203-22.672 22.672v60.457h-60.457c-12.469 0-22.672 10.203-22.672 22.672s10.203 22.672 22.672 22.672z" fill="#27599f"></path>
</svg>