<svg xmlns="http://www.w3.org/2000/svg" viewBox="269.87 277.49 660.75 645.01">  <path d="m550.64 648.83h-79.32c-6.4961-0.03125-11.777-5.1953-11.957-11.691l-3.8086-192.21c-0.62109-20.016-17.121-35.867-37.137-35.66-20.043 0.20703-36.223 16.355-36.457 36.367v256.35c-0.11719 6.5234-5.4336 11.75-11.957 11.75-6.4961 0-11.809-5.2266-11.926-11.75v-52.426c-29.844 3.8086-56.414 20.723-72.531 46.141-16.09 25.387-20.016 56.648-10.746 85.254l56.973 132.96c2.2148 5.2266 7.3516 8.6211 13.047 8.5898h244.87c6.7305 0 12.516-4.7539 13.875-11.336l33.094-161.15c3.8672-25.18-3.3945-50.832-19.895-70.23-16.5-19.426-40.648-30.73-66.125-30.969z" fill="#27599f"></path>  <path d="m799.88 277.5c-167.2 5.7852-177 241.62-12.164 262.16-9.4453 98.598-152.21 93.996-155.04-5.3125v-89.648c-0.03125-39.586-32.117-71.645-71.676-71.676h-36.957c-18.773-133.2-209.86-123.52-214.23 11.926 0.03125 36.074 18.125 69.695 48.176 89.621v-28.93c0-33.297 26.832-60.367 60.133-60.691 33.27-0.32422 60.633 26.215 61.285 59.512l0.47266 27.867c24.766-17.711 40.855-45.168 44.164-75.453h36.957c12.695-0.03125 24.855 5.0195 33.832 13.992 8.9727 8.9727 13.992 21.137 13.992 33.832v89.621c4.4883 131.3 191.64 135.91 202.86 5.3125 165.22-20.074 155.54-256.35-11.809-262.14zm63.293 102.84-70.848 70.848c-4.6641 4.5469-12.105 4.5469-16.77 0l-35.426-35.426c-4.6328-4.6328-4.6328-12.133 0-16.77 4.6328-4.6328 12.133-4.6328 16.77 0l27.039 27.16 62.465-62.582c4.6641-4.457 12.043-4.3984 16.59 0.17578 4.5742 4.5469 4.6641 11.926 0.17578 16.59z" fill="#27599f"></path> </svg>