<svg version="1.1" xmlns="http://www.w3.org/2000/svg" viewBox="96 96 1008 1008">  <path d="m830.16 334.92-572.72 220.64c-22.594 8.7188-23.156 40.734-0.75 50.109l237.84 99.797 99.797 237.84c9.4219 22.453 41.344 21.891 50.109-0.75l220.64-572.72c8.3438-21.75-12.984-43.359-34.922-34.922zm-211.97 525.61-71.109-169.45 113.53-113.53c25.266-25.266-12.891-63.422-38.203-38.203l-113.53 113.53-169.45-71.109 453.32-174.61z" fill="#fff"></path>  <path d="m600 96c-277.92 0-504 226.08-504 504s226.08 504 504 504 504-226.08 504-504-226.08-504-504-504zm0 954c-248.16 0-450-201.84-450-450s201.84-450 450-450 450 201.84 450 450-201.84 450-450 450z" fill="#fff"></path> </svg>