<svg version="1.1" xmlns="http://www.w3.org/2000/svg" viewBox="103.34 96.93 993.36 1006.08">  <path d="m1089.2 189c-4.9219-3.7031-11.297-4.9219-16.922-3.1406l-611.26 157.82c-2.2969 0.375-4.5469 1.6875-5.625 2.2969-7.0781 4.4531-10.453 12.844-8.3906 20.859 1.6875 6.4688 6.7031 11.625 12.609 13.312l146.29 57.141 1.3125 158.16c0 0.23438 0.14063 0.46875 0.14063 0.70312 0 0.375 0.14062 0.60938 0.23437 0.9375 0 0.14062 0 0.375 0.14063 0.46875 0 0.14062 0.14062 0.23438 0.23437 0.375 0.14063 0.23438 0.23438 0.375 0.375 0.46875 0.14063 0.14062 0.14063 0.375 0.23438 0.46875 0 0.14062 0.14062 0.14062 0.23437 0.14062 0.14063 0.14062 0.14063 0.23438 0.14063 0.23438 0.23437 0.375 0.60937 0.46875 0.9375 0.70312 0.14062 0 0.14062 0.14062 0.23437 0.14062 0.14063 0.14062 0.23438 0.23438 0.375 0.23438 0 0 0.14063 0 0.14063 0.14062 0.23437 0.14062 0.60937 0.23438 0.9375 0.23438 0.375 0.14062 0.70312 0.375 1.2188 0.375h1.9688c1.6875 0 3.6094-0.375 5.5312-0.9375 0.60937-0.23438 1.0781-0.46875 1.6875-0.70312 1.6875-0.70312 3.375-1.5469 4.7812-2.8594l119.62-102.23 10.219 3.9375 77.625 30 0.84375 0.375c0.23437 0.14062 0.46875 0.23438 0.70312 0.375h0.14063c0.14062 0 0.14062 0 0.23437 0.14062h0.14063c0.14062 0 0.60937 0.23438 1.0781 0.375 0.14063 0 0.23438 0 0.375 0.14062 0.23438 0.14062 0.375 0.14062 0.60938 0.23438h0.375c0.9375 0.23438 1.9219 0.23438 2.7656 0.375 0.375 0 0.70313 0.14062 1.0781 0.14062h0.46875c1.7812 0 3.6094-0.375 5.2969-0.84375 0.375-0.14062 0.60938-0.23438 0.9375-0.375 1.4531-0.46875 2.8594-1.2188 4.2188-2.0625 0.46875-0.23438 0.84375-0.46875 1.2188-0.84375 1.4531-1.2188 2.8594-2.5312 3.9375-4.0781l56.062-73.312 178.08-232.69c0.14062-0.14062 0.23437-0.375 0.46875-0.46875 5.7656-8.3906 4.2188-20.391-4.0781-26.766zm-477.37 237.71-148.31-57.844c-2.3906-0.70312-4.2188-2.5312-4.7812-5.0625-0.70312-3 0.46875-6.1406 3-7.6875 0.375-0.23438 1.0781-0.60938 1.5469-0.70312 0.14062 0 0.375-0.14062 0.46875-0.14062l604.82-156.05zm6.8438 110.91-0.70313-100.55 271.45-135.24-248.29 140.95c-0.375 0.14062-0.70312 0.14062-1.0781 0.375-1.5469 0.84375-2.625 2.2969-3 4.0781zm78.609-17.156-76.078 65.062 26.297-128.86 15.234 5.8594c0.375 0.14062 0.70312 0.23437 1.2188 0.46875l49.453 19.078 19.922 7.6875zm386.16-312.52-0.375 0.375-170.39 222.84-28.312 36.938-36 47.062c-0.375 0.60938-0.9375 1.2188-1.4531 1.5469-0.375 0.23438-0.84375 0.46875-1.2188 0.70312-0.23438 0.14062-0.375 0.23438-0.60938 0.375-0.60938 0.23438-1.2188 0.375-1.7812 0.375h-0.23438c-0.60938 0-1.0781 0-1.6875-0.14062-0.14062 0-0.375 0-0.46875-0.14062l-93-36.703c-1.0781-0.375-2.1562-0.46875-3.2344-0.375l-28.312-10.922-47.531-18.375s-0.84375-0.375-1.2188-0.46875l-10.312-3.9375 427.31-242.53c-0.1875 1.5-0.5625 2.4375-1.1719 3.375z" fill="#27599f"></path>  <path d="m768.84 517.55-0.84375-1.0781c-1.7812-2.7656-5.625-3.4688-8.2969-1.5469-2.7656 1.9219-3.4688 5.625-1.5469 8.3906l0.23438 0.375c0.14062 0.23438 0.23438 0.46875 0.375 0.70312 58.312 90 93.141 198.94 93.141 291.61 0 239.39-230.76 275.16-368.29 275.16s-368.29-35.859-368.29-275.29c0-150.71 89.156-329.39 207.61-416.63h129.47c3.375 0 6-2.625 6-6s-2.625-6-6-6h-136.08c-15.844 0-28.688-12.844-28.688-28.688 0-7.6875 3-14.859 8.5312-20.297 5.2969-5.3906 12.469-8.3906 20.156-8.3906h179.63c3.375 0 6-2.625 6-6s-2.625-6-6-6h-172.87l-42.938-187.22c-0.9375-5.3906 0.46875-10.922 4.0781-15.141 3.4688-4.2188 8.625-6.6094 14.156-6.6094h97.312l29.062 151.31c0.60938 2.8594 3.1406 4.9219 5.8594 4.9219 0.375 0 0.70312 0 1.0781-0.14062 3.2344-0.60938 5.3906-3.7031 4.7812-7.0781l-28.594-148.97h121.78l29.062 151.31c0.60938 2.8594 3.1406 4.9219 5.8594 4.9219 0.375 0 0.70312 0 1.0781-0.14062 3.2344-0.60938 5.3906-3.7031 4.7812-7.0781l-28.5-149.02h127.08c5.5312 0 10.688 2.3906 14.156 6.6094s5.0625 9.7031 4.0781 14.859l-33.938 148.45c-0.70312 3.2344 1.3125 6.4688 4.5469 7.2188 3.2344 0.70312 6.4688-1.3125 7.2188-4.5469l34.078-148.69c1.5469-8.8594-0.84375-18-6.7031-24.938-5.7656-6.9375-14.297-10.922-23.297-10.922l-370.82-0.046874c-9 0-17.531 3.9375-23.297 10.922-5.8594 6.9375-8.2969 16.078-6.6094 25.219l42.469 185.29c-8.8594 1.2188-16.922 5.0625-23.156 11.391-7.7812 7.5469-12 17.766-12 28.781 0 18.703 12.703 34.312 30 39.141-116.11 91.781-202.4 268.45-202.4 418.18 0 185.16 135 287.16 380.29 287.16s380.29-102 380.29-287.16c0-94.547-35.391-205.78-94.688-297.47 0-0.23437-0.28125-0.46875-0.375-0.84375z" fill="#27599f"></path>  <path d="m466.55 887.16h34.453c3.375 0 6-2.625 6-6v-14.625c7.4531-2.2969 14.062-5.7656 19.688-10.453 8.0625-6.7031 14.062-15.375 17.859-25.688 3.6094-9.8438 5.3906-21 5.3906-33 0-11.062-1.7812-21-5.3906-29.766-3.375-8.2969-7.9219-15.844-13.688-22.453-5.3906-6.2344-11.156-11.766-17.391-16.688-5.7656-4.5469-11.531-9-17.391-13.312-5.0625-3.7031-9.9375-7.9219-14.531-12.375-3.8438-3.7031-6.8438-7.9219-9.1406-12.469-2.0625-4.0781-3.1406-9-3.1406-14.625 0-5.5312 0.70312-10.219 2.1562-13.922 1.0781-2.7656 2.5312-4.6875 4.4531-6 4.0781-2.7656 13.453-2.625 17.531 0 2.0625 1.3125 3.4688 3.375 4.5469 6 1.4531 3.6094 2.0625 8.2969 2.0625 13.922v14.531c0 3.375 2.625 6 6 6h37.547c3.375 0 6-2.625 6-6v-12.703c0-12.234-1.7812-23.297-5.2969-32.859-3.8438-10.453-9.7031-19.078-17.625-25.547-5.5312-4.5469-12.141-8.0625-19.547-10.312v-15.609c0-3.375-2.625-6-6-6h-34.453c-3.375 0-6 2.625-6 6v15.703c-7.3125 2.2969-13.781 5.7656-19.219 10.219-7.9219 6.4688-13.922 15-17.625 25.312-3.4688 9.6094-5.2969 20.766-5.2969 33.141 0 10.922 1.7812 21 5.2969 29.766 3.4688 8.5312 7.9219 16.078 13.547 22.547 5.2969 6.1406 11.156 11.766 17.297 16.688 5.7656 4.5469 11.531 9 17.391 13.453 5.5312 4.0781 10.219 8.1562 14.391 12.234 3.7031 3.7031 6.8438 7.9219 9.1406 12.469 2.0625 4.0781 3.1406 9 3.1406 14.625 0 8.0625-1.3125 13.922-4.2188 17.531-2.1562 2.7656-6 4.0781-11.625 4.0781h-0.14062c-5.625 0-9.4688-1.3125-11.625-4.2188-2.7656-3.4688-4.2188-9.375-4.2188-17.531l0.046875-22.828c0-3.375-2.625-6-6-6h-37.547c-3.375 0-6 2.625-6 6v21c0 12.375 1.7812 23.531 5.2969 33.141 3.8438 10.547 9.8438 19.219 17.859 25.688 5.625 4.5469 12.375 8.0625 19.922 10.312v14.531c0.09375 3.4688 2.7656 6.0938 6.0938 6.0938zm-18.328-40.219c-6.375-5.1562-11.156-12.141-14.297-20.531-3-8.2969-4.5469-18-4.5469-29.062v-14.953h25.547v16.688c0 11.062 2.2969 19.219 6.8438 24.938 4.5469 5.7656 11.625 8.7656 21 8.7656h0.14062c9.4688 0 16.547-3 21.141-8.7656 4.5469-5.8594 6.7031-14.156 6.7031-24.938 0-7.4531-1.5469-14.156-4.4531-19.922-2.8594-5.625-6.7031-10.922-11.391-15.609-4.5469-4.5469-9.7031-8.8594-15.609-13.312-5.7656-4.3125-11.531-8.625-17.062-13.219-5.625-4.5469-10.922-9.6094-15.703-15.234-4.6875-5.3906-8.5312-11.859-11.531-19.219-3-7.3125-4.4531-15.844-4.4531-25.312 0-10.922 1.4531-20.766 4.5469-29.062 3-8.2969 7.7812-15.141 14.062-20.156 5.1562-4.2188 11.531-7.2188 19.078-9 2.7656-0.60938 4.5469-3 4.5469-5.8594v-14.297h22.453v14.297c0 2.7656 1.9219 5.2969 4.6875 5.8594 7.5469 1.6875 14.062 4.7812 19.219 9.1406 6.2344 5.1562 10.922 12 14.062 20.391 3 8.2969 4.5469 18 4.5469 28.781v6.7031h-25.547v-8.5312c0-7.2188-0.9375-13.219-2.8594-18.234-1.9219-5.0625-5.0625-8.8594-9-11.625-8.0625-5.3906-22.688-5.5312-30.938 0-3.9375 2.7656-6.9375 6.6094-8.8594 11.625-1.9219 5.1562-2.8594 11.297-2.8594 18.234 0 7.4531 1.5469 14.156 4.4531 20.062 2.8594 5.7656 6.7031 11.062 11.531 15.609 4.9219 4.7812 10.219 9.375 15.703 13.453 5.7656 4.3125 11.531 8.625 17.156 13.219 5.625 4.4531 10.922 9.4688 15.703 15.141 4.7812 5.5312 8.7656 12 11.625 19.078 3 7.3125 4.4531 15.844 4.4531 25.312 0 10.688-1.5469 20.391-4.6875 28.922-3.1406 8.3906-7.7812 15.234-14.297 20.531-5.2969 4.3125-11.766 7.4531-19.312 9.2344-2.7656 0.60938-4.6875 3-4.6875 5.8594v13.219h-22.453v-13.219c0-2.7656-1.9219-5.2969-4.6875-5.8594-8.1094-1.6875-14.719-4.7812-19.969-9.1406z" fill="#27599f"></path>  <path d="m381.24 574.45c-56.297 35.531-89.766 96.375-89.766 162.61 0 3.375 2.625 6 6 6s6-2.625 6-6c0-62.156 31.453-119.16 84.234-152.53 2.7656-1.7812 3.6094-5.5312 1.9219-8.2969-1.9219-2.7656-5.625-3.4688-8.3906-1.7812z" fill="#27599f"></path>  <path d="m483.61 507.71c-126.47 0-229.31 102.84-229.31 229.31 0 126.47 102.84 229.45 229.31 229.45 126.47 0 229.31-102.94 229.31-229.45 0-55.453-20.062-108.94-56.391-150.61-2.1562-2.5312-6-2.7656-8.5312-0.60938s-2.7656 6-0.60938 8.5312c34.453 39.469 53.531 90.141 53.531 142.69 0 119.86-97.453 217.45-217.31 217.45s-217.31-97.547-217.31-217.45c0-119.86 97.453-217.31 217.31-217.31 37.922 0 75 9.8438 107.53 28.453 3.4688 2.625 9.6094 0 9.6094-4.7812 0-2.2969-1.3125-4.2188-3.1406-5.2969-34.312-19.922-73.828-30.375-114-30.375z" fill="#27599f"></path> </svg>