<?xml version="1.0" encoding="UTF-8"?>
<svg viewBox="0 0 1200 1200" xmlns="http://www.w3.org/2000/svg">
 <rect x="-120" y="-120" width="1440" height="1440" fill="#fff"/>
 <path d="m865.88 750.34c-53.816 0-97.672 43.855-97.672 97.672s43.855 97.672 97.672 97.672 97.672-43.855 97.672-97.672-43.855-97.672-97.672-97.672zm0 178.16c-44.426 0-80.496-36.066-80.496-80.496 0-44.426 36.066-80.496 80.496-80.496 44.426 0 80.496 36.066 80.496 80.496 0 44.43-36.07 80.496-80.496 80.496z" fill="#27599f"/>
 <path d="m902.75 811.83-54.273 54.273-19.465-19.352c-3.3203-3.3203-8.8164-3.3203-12.137 0-3.3203 3.3203-3.3203 8.8164 0 12.137l25.418 25.418c1.7188 1.7188 3.8945 2.5195 6.0703 2.5195s4.3516-0.80078 6.0703-2.5195l60.344-60.344c3.3203-3.3203 3.3203-8.8164 0-12.137-3.3242-3.3164-8.707-3.4336-12.027 0.003906z" fill="#27599f"/>
 <path d="m780.69 928.62h-482.29c-10.992 0-21.297-4.1211-29.426-11.223-0.23047-0.23047-0.57422-0.45703-0.80078-0.80078l204.39-153.32 17.977-13.512 61.715-46.258c15.801-11.91 37.898-11.91 53.703 0l140.27 105.23c0.91797 0.6875 1.832 1.0312 2.8633 1.375 0.34375 0.11328 0.6875 0.11328 0.91797 0.11328 0.45703 0.11328 0.91797 0.23047 1.375 0.23047 0.23047 0 0.34375-0.11328 0.57422-0.11328 0.80078 0 1.6016-0.23047 2.4062-0.57422 0.34375-0.11328 0.6875-0.23047 1.1445-0.34375 1.0312-0.57422 2.0625-1.375 2.8633-2.4062 2.8633-3.7773 2.0625-9.1602-1.7188-12.023l-69.273-51.984 217.32-159.04v150.23c0 4.6953 3.8945 8.5859 8.5859 8.5859 4.6953 0 8.5859-3.8945 8.5859-8.5859v-167.17c0-2.6328-1.2578-5.0391-3.3203-6.6406-0.11328-0.11328-0.11328-0.23047-0.23047-0.23047l-91.258-66.871-0.003906-230.48c0-4.6953-3.8945-8.5859-8.5859-8.5859h-374.31c-2.2891 0-4.4648 0.91797-6.0703 2.5195l-104.31 104.31c-1.6016 1.6016-2.5195 3.7773-2.5195 6.0703v126.07l-91.258 66.871c-0.11328 0 0 0.11328-0.11328 0.11328-2.0625 1.6016-3.4336 4.0078-3.4336 6.7539v316.83c0 13.055 4.2383 25.648 11.793 36.066 0.11328 0.23047 0.23047 0.34375 0.34375 0.57422l0.11328 0.11328c11.91 16.031 30 25.191 49.695 25.191h482.17c4.6953 0 8.5859-3.8945 8.5859-8.5859 0.003906-4.6992-3.7773-8.4805-8.4688-8.4805zm-527.05-44.883v-299.88l217.32 159.04-212.97 159.85c-2.8633-5.8398-4.3516-12.367-4.3516-19.008zm181.95-600.11v75h-75zm-95.727 318.77c4.6953 0 8.5859-3.8945 8.5859-8.5859l0.003906-218.13h95.723c4.6953 0 8.5859-3.8945 8.5859-8.5859v-95.727h357.13v322.32c0 4.6953 3.8945 8.5859 8.5859 8.5859 4.6953 0 8.5859-3.8945 8.5859-8.5859v-79.352l71.68 52.441-225.79 165.46-56.68-42.48c-21.871-16.375-52.441-16.375-74.426 0l-56.68 42.48-225.57-165.34 71.68-52.441v79.352c0 4.6914 3.8906 8.5859 8.5859 8.5859z" fill="#27599f"/>
 <path d="m425.73 462.14 111.07 57.938 57.938 111.07c1.4883 2.8633 4.4648 4.582 7.6719 4.582h0.34375c3.3203-0.11328 6.2969-2.1758 7.5586-5.1523l128.7-301.37v-0.11328c0.11328-0.11328 0.11328-0.34375 0.11328-0.45703 0.23047-0.80078 0.45703-1.6016 0.45703-2.4062v-0.91797c0-0.6875-0.23047-1.375-0.45703-2.0625-0.11328-0.34375-0.23047-0.57422-0.34375-0.91797-0.45703-0.91797-0.91797-1.832-1.7188-2.5195-0.80078-0.6875-1.6016-1.2578-2.5195-1.7188-0.23047-0.11328-0.57422-0.23047-0.80078-0.34375-0.6875-0.23047-1.375-0.34375-2.0625-0.45703h-0.91797c-0.80078 0-1.7188 0.23047-2.5195 0.45703-0.11328 0-0.34375 0-0.45703 0.11328h-0.11328l-301.37 128.82c-3.0898 1.2578-5.0391 4.2383-5.1523 7.5586-0.22656 3.3203 1.6055 6.4102 4.582 7.8984zm175.88 145.07-47.977-91.832 152.06-152.06zm92.059-256.03-152.17 152.06-91.832-47.977z" fill="#27599f"/>
</svg>
