<?xml version="1.0" encoding="UTF-8"?>
<svg width="1200pt" height="1200pt" version="1.1" viewBox="0 0 1200 1200" xmlns="http://www.w3.org/2000/svg">
 <path d="m599.95 184.89c-41.375 0-81.055 16.438-110.31 45.691-29.254 29.254-45.691 68.934-45.691 110.31s16.438 81.055 45.691 110.31c29.254 29.254 68.934 45.691 110.31 45.691s81.055-16.438 110.31-45.691c29.254-29.254 45.691-68.934 45.691-110.31-0.046875-41.359-16.5-81.012-45.746-110.25-29.242-29.246-68.895-45.699-110.25-45.746zm0 300c-38.191 0-74.816-15.172-101.82-42.176-27.004-27.008-42.176-63.633-42.176-101.82 0-38.191 15.172-74.816 42.176-101.82 27.008-27.004 63.633-42.176 101.82-42.176s74.816 15.172 101.82 42.176c27.004 27.008 42.176 63.633 42.176 101.82-0.042969 38.18-15.227 74.781-42.223 101.78-26.996 26.996-63.598 42.18-101.78 42.223z" fill="#27599f"/>
 <path d="m646.18 300.71c0 3.3125 2.6875 6 6 6s6-2.6875 6-6c0-23.836-22.969-43.281-52.23-45.703v-10.559c0-3.3125-2.6875-6-6-6s-6 2.6875-6 6v10.559c-29.262 2.4219-52.242 21.867-52.242 45.703 0 23.836 22.98 43.273 52.242 45.691v68.383c-22.332-2.2695-40.242-16.707-40.242-33.723v0.003906c0-3.3125-2.6875-6-6-6s-6 2.6875-6 6c0 23.836 22.98 43.281 52.242 45.703v10.559c0 3.3125 2.6875 6 6 6s6-2.6875 6-6v-10.559c29.262-2.4219 52.23-21.867 52.23-45.703 0-23.836-22.969-43.281-52.23-45.703v-68.375c22.32 2.2734 40.23 16.711 40.23 33.723zm-92.473 0c0-17.016 17.914-31.449 40.242-33.723v67.43c-22.332-2.2656-40.242-16.691-40.242-33.707zm92.473 80.355c0 17.012-17.91 31.449-40.23 33.723v-67.445c22.32 2.2734 40.23 16.711 40.23 33.723z" fill="#27599f"/>
 <path d="m1128 69.727h-1056c-1.5898 0-3.1172 0.63281-4.2422 1.7578s-1.7578 2.6523-1.7578 4.2422v212.13c0 1.5898 0.63281 3.1172 1.7578 4.2422s2.6523 1.7578 4.2422 1.7578h97.676v259.22c0 1.5898 0.63281 3.1172 1.7578 4.2422s2.6523 1.7578 4.2422 1.7578h590.51l2.5508 1.4727-9.957 17.188v-0.003906c-5.7812 10.059-7.3398 22.004-4.332 33.211 3.0078 11.207 10.332 20.766 20.375 26.578l22.258 12.836v0.003906c-1.2969 5.1367-1.9766 10.41-2.0312 15.707v121.64c2.2852 24.43 12.984 47.309 30.27 64.723l7.5938 7.5586c14.664 14.496 22.887 34.273 22.828 54.891v209.39c0 1.5898 0.63281 3.1172 1.7578 4.2422s2.6523 1.7578 4.2422 1.7578h243.76c1.5898 0 3.1172-0.63281 4.2422-1.7578s1.7578-2.6523 1.7578-4.2422v-737.5c-0.003906-17.715-6.9727-34.715-19.406-47.332l-45.387-45.586h81.293c1.5898 0 3.1172-0.63281 4.2422-1.7578s1.7578-2.6523 1.7578-4.2422v-212.13c0-1.5898-0.63281-3.1172-1.7578-4.2422s-2.6523-1.7578-4.2422-1.7578zm-97.676 65.004h38.566v94.113h-38.566zm-860.65 94.113h-38.672v-94.113h38.672zm12-94.078h836.65v412.31h-28.605v-100.96c2.625-0.60938 4.5156-2.9023 4.6055-5.5977v-199.2c0-1.5898-0.63281-3.1172-1.7578-4.2422s-2.6523-1.7578-4.2422-1.7578c-18.707-0.019531-36.641-7.4609-49.867-20.691-13.23-13.227-20.672-31.16-20.691-49.867 0-1.5898-0.63281-3.1172-1.7578-4.2422s-2.6523-1.7578-4.2422-1.7578h-623.53c-1.5898 0-3.1172 0.63281-4.2422 1.7578s-1.7578 2.6523-1.7578 4.2422c-0.019531 18.707-7.4609 36.641-20.691 49.867-13.227 13.23-31.16 20.672-49.867 20.691-1.5898 0-3.1172 0.63281-4.2422 1.7578s-1.7578 2.6523-1.7578 4.2422v199.2c0 1.5938 0.63281 3.1172 1.7578 4.2422 1.125 1.1289 2.6523 1.7578 4.2422 1.7578 18.707 0.023438 36.641 7.4609 49.867 20.691 13.23 13.227 20.672 31.16 20.691 49.867 0 1.5938 0.63281 3.1172 1.7578 4.2422 1.125 1.1289 2.6523 1.7578 4.2422 1.7578h567.7v24h-674.26zm674.26 441.35c-0.015625 6.3086-2.0703 12.441-5.8516 17.488l-59.891-34.527h65.742zm0-151.8v86.766h-561.91c-1.4648-19.762-9.9805-38.344-23.992-52.355-14.012-14.012-32.594-22.527-52.355-23.992v-187.62c19.762-1.4648 38.344-9.9805 52.355-23.992 14.012-14.012 22.527-32.594 23.992-52.355h611.95c1.4648 19.762 9.9805 38.344 23.992 52.355 14.012 14.012 32.594 22.527 52.355 23.992v145.19c-9.1719-18.441-26.379-31.586-46.582-35.582-4.5938-0.91406-9.2773-1.2812-13.957-1.1016-17.781 0.55469-34.637 8.0586-46.949 20.902s-19.098 30.004-18.898 47.793zm-75.117 202.82c-7.2891-4.2188-12.605-11.156-14.789-19.289-2.1836-8.1367-1.0547-16.805 3.1406-24.105l9.9492-17.195 61.508 35.477 0.003906 0.003906c-1.2617 0.72656-2.5664 1.3672-3.9141 1.918-15.953 6.5664-28.762 19.027-35.77 34.793zm318.68-240.35v731.5h-231.76v-203.39c0.070313-23.812-9.4297-46.656-26.367-63.398l-7.6055-7.5703c-15.051-15.145-24.477-34.973-26.719-56.203v-121.64c-0.011719-10.941 3.2344-21.637 9.3281-30.727 6.0898-9.0859 14.754-16.152 24.879-20.297 7.832-3.0742 14.562-8.4258 19.32-15.367 4.7578-6.9414 7.3242-15.148 7.3633-23.562v-151.8c-0.20312-14.656 5.3516-28.805 15.473-39.41 10.117-10.602 23.996-16.809 38.645-17.285 3.793-0.1875 7.5977 0.10156 11.32 0.86719 12.512 2.4648 23.777 9.1992 31.863 19.055 8.0898 9.8555 12.504 22.219 12.48 34.969v154.58c0 3.3125 2.6875 6 6 6s6-2.6875 6-6v-18.012h34.605c1.5898 0 3.1172-0.63281 4.2422-1.7578s1.7578-2.6523 1.7578-4.2422v-258.67l53.227 53.461c10.215 10.375 15.941 24.348 15.949 38.906zm22.5-104.92h-87.238l-4.4375-4.457v-36.559h44.566c1.5898 0 3.1172-0.63281 4.2422-1.7578s1.7578-2.6523 1.7578-4.2422v-106.11c0-1.5898-0.63281-3.1172-1.7578-4.2422s-2.6523-1.7578-4.2422-1.7578h-949.89c-1.5898 0-3.1172 0.63281-4.2422 1.7578s-1.7578 2.6523-1.7578 4.2422v106.11c0 1.5898 0.63281 3.1172 1.7578 4.2422s2.6523 1.7578 4.2422 1.7578h44.672v41.016h-91.676v-200.13h1044z" fill="#27599f"/>
 <path d="m661.76 1054-55.758 55.758v-494.66c0-3.3125-2.6875-6-6-6s-6 2.6875-6 6v494.66l-55.758-55.758c-2.3477-2.3008-6.1133-2.2852-8.4414 0.042969-2.3242 2.3242-2.3438 6.0898-0.042969 8.4414l65.992 65.992c2.3516 2.3438 6.1523 2.3438 8.5 0l65.992-65.992c2.3008-2.3477 2.2852-6.1133-0.042969-8.4414-2.3242-2.3242-6.0898-2.3438-8.4414-0.042969z" fill="#27599f"/>
</svg>
